# Blender v3.0.0 OBJ File: 'cash counter.blend'
# www.blender.org
mtllib cash counter.mtl
o Cube
v 0.590363 0.017372 -2.154786
v 0.590363 0.017372 2.154786
v -0.590363 0.017372 -2.154786
v -0.590363 0.017372 2.154786
v 0.590363 1.055789 -2.154786
v 0.590363 1.055789 2.154786
v -0.590363 1.055789 -2.154786
v -0.590363 1.055789 2.154786
v 0.927274 1.055789 -2.520746
v 0.927274 1.055789 2.520746
v -0.927274 1.055789 -2.520746
v -0.927274 1.055789 2.520746
v 0.927274 1.359720 -2.520746
v 0.927274 1.359720 2.520746
v -0.927274 1.359720 -2.520746
v -0.927274 1.359720 2.520746
vt 0.156924 0.854812
vt 0.156924 0.939740
vt 0.089773 0.939740
vt 0.089773 0.854812
vt 0.224074 0.854812
vt 0.224074 0.939740
vt 0.156924 0.787662
vt 0.089773 0.787662
vt 0.089773 0.702734
vt 0.156924 0.702734
vt 0.223434 0.334226
vt 0.223434 0.074327
vt 0.297594 0.052257
vt 0.297594 0.356297
vt 0.582782 0.319009
vt 0.370721 0.319009
vt 0.370721 0.269031
vt 0.582782 0.269031
vt 0.314861 0.343489
vt 0.314860 0.083589
vt 0.336931 0.009429
vt 0.336931 0.417649
vt 0.337466 0.343489
vt 0.337465 0.083589
vt 0.359536 0.009429
vt 0.359536 0.417649
vt 0.222899 0.074328
vt 0.222899 0.334226
vt 0.148739 0.356297
vt 0.148738 0.052257
vt 0.582782 0.056971
vt 0.740723 0.056971
vt 0.740723 0.269031
vt 0.740723 0.319009
vt 0.582782 0.006993
vt 0.740723 0.006993
vt 0.952783 0.319009
vt 0.952783 0.269031
vt 0.022623 0.939740
vt 0.022623 0.854812
vn 1.0000 0.0000 0.0000
vn 0.0000 0.0000 -1.0000
vn 0.0000 -1.0000 0.0000
vn -1.0000 0.0000 0.0000
vn 0.0000 1.0000 0.0000
vn 0.0000 0.0000 1.0000
usemtl Material
s off
f 1/1/1 5/2/1 6/3/1 2/4/1
f 3/5/2 7/6/2 5/2/2 1/1/2
f 3/7/3 1/1/3 2/4/3 4/8/3
f 4/8/4 8/9/4 7/10/4 3/7/4
f 7/11/3 8/12/3 12/13/3 11/14/3
f 9/15/2 11/16/2 15/17/2 13/18/2
f 8/19/3 6/20/3 10/21/3 12/22/3
f 5/23/3 7/24/3 11/25/3 9/26/3
f 6/27/3 5/28/3 9/29/3 10/30/3
f 13/18/5 15/31/5 16/32/5 14/33/5
f 10/34/1 9/15/1 13/18/1 14/33/1
f 11/35/4 12/36/4 16/32/4 15/31/4
f 12/37/6 10/34/6 14/33/6 16/38/6
f 2/4/6 6/3/6 8/39/6 4/40/6
o Plane.001
v 0.147452 2.117545 -1.580556
v 0.090351 2.117545 -1.580556
v 0.090351 2.117545 -1.637658
v 0.147452 2.117545 -1.637658
v 0.147452 1.964541 -1.580556
v 0.090351 1.964541 -1.580556
v 0.090351 1.964541 -1.637658
v 0.147452 1.964541 -1.637658
v 0.147452 2.015542 -1.580556
v 0.090351 2.015542 -1.580556
v 0.090351 2.015542 -1.637658
v 0.147452 2.015542 -1.637658
v 0.147452 2.066544 -1.580556
v 0.090351 2.066544 -1.580556
v 0.090351 2.066544 -1.637658
v 0.147452 2.066544 -1.637658
v 0.166628 2.117545 -1.491509
v 0.071175 2.117545 -1.491509
v 0.071175 2.117545 -1.726705
v 0.166628 2.117545 -1.726705
v 0.166628 2.185361 -1.491509
v 0.071175 2.185361 -1.491509
v 0.071175 2.185361 -1.726705
v 0.166628 2.185361 -1.726705
v -0.511456 1.337068 -1.728664
v -0.050404 1.698327 -1.729229
v -0.254942 1.698327 -1.729229
v -0.511927 1.525256 -1.729229
v -0.050404 1.971045 -1.729229
v 0.221612 1.970649 -1.728664
v 0.221612 1.342304 -1.728664
v -0.511456 1.337068 -1.022625
v -0.050404 1.698327 -1.022060
v -0.254942 1.698327 -1.022060
v -0.511927 1.525256 -1.022060
v -0.050404 1.971045 -1.022060
v 0.221612 1.970649 -1.022625
v 0.221612 1.342304 -1.022625
vt 0.496890 0.433872
vt 0.513726 0.433872
vt 0.539980 0.439526
vt 0.470636 0.439526
vt 0.619911 0.441457
vt 0.636747 0.441457
vt 0.636747 0.456494
vt 0.619911 0.456494
vt 0.569405 0.441457
vt 0.586240 0.441457
vt 0.586240 0.456494
vt 0.569405 0.456494
vt 0.603076 0.441457
vt 0.603076 0.456494
vt 0.619911 0.426420
vt 0.636747 0.426420
vt 0.569405 0.426420
vt 0.586240 0.426420
vt 0.603076 0.426420
vt 0.619911 0.411383
vt 0.636747 0.411383
vt 0.569405 0.411383
vt 0.586240 0.411383
vt 0.603076 0.411383
vt 0.688612 0.405898
vt 0.969038 0.407449
vt 0.969038 0.500609
vt 0.688612 0.499059
vt 0.496890 0.417037
vt 0.470636 0.411383
vt 0.513726 0.417037
vt 0.539980 0.411383
vt 0.539980 0.459521
vt 0.539980 0.487663
vt 0.470636 0.487663
vt 0.470636 0.459520
vt 0.442493 0.439526
vt 0.442493 0.459520
vt 0.568123 0.439526
vt 0.568123 0.459521
vt 0.507057 0.620781
vt 0.379239 0.620006
vt 0.379239 0.979959
vt 0.507057 0.980734
vt 0.023614 0.480307
vt 0.023614 0.437380
vt 0.184397 0.437380
vt 0.184397 0.480307
vt 0.627075 0.610654
vt 0.522964 0.610654
vt 0.524194 0.988320
vt 0.628306 0.988320
vt 0.975746 0.666716
vt 0.975746 0.728598
vt 0.815284 0.728598
vt 0.815284 0.666716
vt 0.975746 0.871402
vt 0.815284 0.871402
vt 0.784781 0.610654
vt 0.786011 0.988320
vt 0.295076 0.518482
vt 0.352767 0.519645
vt 0.352767 0.662614
vt 0.190232 0.662643
vt 0.190232 0.619752
vt 0.248612 0.580435
vt 0.295076 0.580435
vt 0.127290 0.662643
vt 0.127290 0.600689
vt 0.080825 0.600689
vt 0.022446 0.561373
vt 0.022446 0.518482
vt 0.189243 0.519673
vt 0.189243 0.662643
vn 0.0000 -1.0000 0.0000
vn 0.0000 0.0000 1.0000
vn -1.0000 0.0000 0.0000
vn 0.0000 0.0000 -1.0000
vn 1.0000 0.0000 0.0000
vn 0.0000 1.0000 0.0000
vn 1.0000 0.0025 0.0000
vn -0.0015 -1.0000 -0.0000
vn 0.5586 -0.8294 0.0000
vn -0.0010 0.0011 -1.0000
vn -0.0010 0.0011 1.0000
usemtl Material
s off
f 17/41/7 20/42/7 36/43/7 33/44/7
f 25/45/8 26/46/8 22/47/8 21/48/8
f 26/49/9 27/50/9 23/51/9 22/52/9
f 27/50/10 28/53/10 24/54/10 23/51/10
f 28/53/11 25/45/11 21/48/11 24/54/11
f 29/55/8 30/56/8 26/46/8 25/45/8
f 30/57/9 31/58/9 27/50/9 26/49/9
f 31/58/10 32/59/10 28/53/10 27/50/10
f 32/59/11 29/55/11 25/45/11 28/53/11
f 17/60/8 18/61/8 30/56/8 29/55/8
f 18/62/9 19/63/9 31/58/9 30/57/9
f 19/63/10 20/64/10 32/59/10 31/58/10
f 20/64/11 17/60/11 29/55/11 32/59/11
f 35/65/9 34/66/9 38/67/9 39/68/9
f 18/69/7 17/41/7 33/44/7 34/70/7
f 20/42/7 19/71/7 35/72/7 36/43/7
f 19/71/7 18/69/7 34/70/7 35/72/7
f 40/73/12 39/74/12 38/75/12 37/76/12
f 33/44/11 36/43/11 40/73/11 37/76/11
f 34/77/8 33/44/8 37/76/8 38/78/8
f 36/43/10 35/79/10 39/80/10 40/73/10
f 42/81/11 45/82/11 52/83/11 49/84/11
f 41/85/13 44/86/13 51/87/13 48/88/13
f 43/89/7 42/90/7 49/91/7 50/92/7
f 45/93/14 46/94/14 53/95/14 52/96/14
f 46/94/9 47/97/9 54/98/9 53/95/9
f 44/99/15 43/89/15 50/92/15 51/100/15
f 52/101/16 53/102/16 54/103/16 48/104/16 51/105/16 50/106/16 49/107/16
f 45/108/17 42/109/17 43/110/17 44/111/17 41/112/17 47/113/17 46/114/17
